<?xml version="1.0" standalone="no"?>
<!DOCTYPE svg PUBLIC "-//W3C//DTD SVG 20010904//EN"
 "http://www.w3.org/TR/2001/REC-SVG-20010904/DTD/svg10.dtd">
<svg version="1.0" xmlns="http://www.w3.org/2000/svg"
 width="128.000000pt" height="128.000000pt" viewBox="0 0 128.000000 128.000000"
 preserveAspectRatio="xMidYMid meet">

<g transform="translate(0.000000,128.000000) scale(0.100000,-0.100000)"
fill="#000000" stroke="none">
<path d="M500 1264 c-234 -50 -436 -254 -485 -489 -95 -454 306 -855 760 -760
238 50 440 252 490 490 95 456 -309 857 -765 759z m339 -57 c176 -62 314 -203
372 -379 34 -103 34 -282 0 -378 -64 -181 -200 -317 -381 -381 -55 -20 -85
-23 -190 -23 -140 0 -207 17 -310 79 -260 158 -362 487 -237 766 70 157 231
290 405 334 90 23 249 14 341 -18z"/>
<path d="M664 1039 c-7 -12 173 -199 191 -199 20 0 78 68 72 84 -8 19 -34 11
-48 -15 -5 -11 -15 -19 -22 -19 -7 0 -48 36 -92 80 -44 44 -83 80 -87 80 -4 0
-10 -5 -14 -11z"/>
<path d="M554 926 c-5 -14 16 -41 88 -113 l96 -96 42 40 c26 24 40 45 36 51
-11 18 -25 14 -52 -15 l-25 -27 -89 89 c-74 74 -90 86 -96 71z"/>
<path d="M785 660 c-135 -135 -167 -172 -157 -182 10 -10 46 21 177 152 l164
164 26 -24 c14 -13 25 -28 25 -34 0 -6 -108 -119 -240 -251 l-240 -240 -125
125 c-69 69 -125 130 -125 136 0 6 11 21 25 34 l26 24 98 -98 98 -98 34 30
c27 24 31 33 22 43 -10 10 -17 9 -33 -6 -21 -19 -22 -18 -113 73 -51 51 -99
92 -108 92 -22 0 -89 -72 -89 -96 0 -23 268 -294 290 -294 24 0 520 502 520
525 0 24 -68 95 -91 95 -8 0 -91 -76 -184 -170z"/>
<path d="M430 792 c0 -20 96 -240 111 -257 17 -18 31 10 19 40 -10 27 -8 32
33 72 41 41 45 43 70 32 21 -10 30 -10 39 -1 17 17 8 22 -122 81 -125 55 -150
61 -150 33z m111 -58 l51 -26 -28 -29 c-15 -16 -30 -29 -33 -29 -3 0 -15 21
-26 47 -11 26 -21 51 -23 55 -6 13 6 9 59 -18z"/>
</g>
</svg>
