<?xml version="1.0" standalone="no"?>
<!DOCTYPE svg PUBLIC "-//W3C//DTD SVG 20010904//EN"
 "http://www.w3.org/TR/2001/REC-SVG-20010904/DTD/svg10.dtd">
<svg version="1.0" xmlns="http://www.w3.org/2000/svg"
 width="1300.000000pt" height="1300.000000pt" viewBox="0 0 1300.000000 1300.000000"
 preserveAspectRatio="xMidYMid meet">

<g transform="translate(0.000000,1300.000000) scale(0.100000,-0.100000)"
fill="#000000" stroke="none">
<path d="M6955 11431 c-42 -10 -66 -27 -95 -68 -63 -87 -86 -93 -379 -93 -333
0 -494 -22 -666 -90 -78 -31 -245 -132 -245 -148 0 -4 6 -14 13 -22 6 -8 3 -7
-9 3 -19 16 -22 15 -76 -41 -84 -85 -160 -199 -226 -335 -200 -413 -244 -930
-127 -1487 56 -268 163 -615 231 -745 121 -236 296 -409 528 -524 218 -108
354 -136 656 -135 195 0 225 3 325 26 214 50 351 118 472 232 87 82 150 174
198 290 84 203 98 341 145 1371 11 242 24 595 31 785 6 190 14 348 17 352 4 3
52 20 108 37 102 32 135 54 164 110 18 35 16 103 -5 134 -25 39 -56 34 -115
-18 -64 -57 -91 -71 -170 -85 -58 -11 -83 -10 -162 6 l-26 5 50 82 c64 103
118 215 118 245 0 12 -7 25 -15 28 -13 6 -218 -88 -489 -223 -70 -35 -130 -62
-132 -60 -2 2 19 44 47 93 58 99 67 150 36 197 -38 59 -131 94 -202 78z m615
-284 c0 -2 -10 -12 -22 -23 l-23 -19 19 23 c18 21 26 27 26 19z m-80 -80 c0
-2 -10 -12 -22 -23 l-23 -19 19 23 c18 21 26 27 26 19z m-1854 -109 l29 -33
-32 29 c-18 17 -33 31 -33 33 0 8 8 1 36 -29z m1774 29 c0 -2 -10 -12 -22 -23
l-23 -19 19 23 c18 21 26 27 26 19z m-80 -80 c0 -2 -10 -12 -22 -23 l-23 -19
19 23 c18 21 26 27 26 19z m-1595 -47 c10 -11 16 -20 13 -20 -3 0 -13 9 -23
20 -10 11 -16 20 -13 20 3 0 13 -9 23 -20z m1515 -33 c0 -2 -10 -12 -22 -23
l-23 -19 19 23 c18 21 26 27 26 19z m-1450 -32 c13 -14 21 -25 18 -25 -2 0
-15 11 -28 25 -13 14 -21 25 -18 25 2 0 15 -11 28 -25z m76 -77 l29 -33 -32
29 c-18 17 -33 31 -33 33 0 8 8 1 36 -29z m1294 29 c0 -2 -10 -12 -22 -23
l-23 -19 19 23 c18 21 26 27 26 19z m-1214 -109 l29 -33 -32 29 c-18 17 -33
31 -33 33 0 8 8 1 36 -29z m1134 29 c0 -2 -10 -12 -22 -23 l-23 -19 19 23 c18
21 26 27 26 19z m338 -208 c108 -357 144 -663 122 -1029 -20 -348 -54 -540
-118 -682 -39 -85 -73 -128 -145 -184 -51 -38 -66 -44 -106 -44 -66 0 -113 33
-244 174 -209 223 -361 303 -556 294 -145 -6 -228 -69 -363 -272 -95 -144
-120 -173 -173 -197 -73 -34 -157 -20 -264 46 -224 135 -327 383 -356 850 -11
180 21 583 66 820 l20 110 122 -6 c152 -8 344 4 552 35 88 13 162 22 164 20 2
-2 -2 -10 -8 -18 -7 -8 -13 -29 -13 -47 -1 -27 7 -40 41 -70 61 -54 167 -77
426 -94 81 -5 223 9 310 31 177 44 339 172 414 327 23 46 41 92 41 103 1 36
26 -24 68 -167z m-418 128 c0 -2 -10 -12 -22 -23 l-23 -19 19 23 c18 21 26 27
26 19z m-959 -44 c13 -16 12 -17 -3 -4 -17 13 -22 21 -14 21 2 0 10 -8 17 -17z
m69 -68 c19 -19 32 -35 29 -35 -3 0 -20 16 -39 35 -19 19 -32 35 -29 35 3 0
20 -16 39 -35z m810 32 c0 -2 -10 -12 -22 -23 l-23 -19 19 23 c18 21 26 27 26
19z m-734 -109 l29 -33 -32 29 c-18 17 -33 31 -33 33 0 8 8 1 36 -29z m654 29
c0 -2 -10 -12 -22 -23 l-23 -19 19 23 c18 21 26 27 26 19z m-80 -80 c0 -2 -10
-12 -22 -23 l-23 -19 19 23 c18 21 26 27 26 19z m-490 -32 c13 -14 21 -25 18
-25 -2 0 -15 11 -28 25 -13 14 -21 25 -18 25 2 0 15 -11 28 -25z m76 -77 l29
-33 -32 29 c-18 17 -33 31 -33 33 0 8 8 1 36 -29z m334 29 c0 -2 -10 -12 -22
-23 l-23 -19 19 23 c18 21 26 27 26 19z m-133 -1507 c148 -64 275 -210 259
-296 -20 -104 -179 -174 -398 -174 -98 0 -164 17 -215 55 -37 29 -72 93 -73
133 0 41 70 163 125 219 92 92 189 112 302 63z"/>
<path d="M5636 10190 c-38 -12 -84 -56 -102 -100 -24 -56 -14 -65 29 -27 43
40 93 66 143 74 27 4 34 10 34 28 0 34 -40 44 -104 25z"/>
<path d="M7174 10186 c-13 -33 1 -50 46 -58 54 -9 128 -46 144 -70 10 -16 36
-25 36 -13 0 24 -35 77 -73 113 -42 38 -52 42 -97 42 -35 0 -52 -4 -56 -14z"/>
<path d="M7167 9856 c-40 -31 -39 -121 2 -153 24 -18 76 -16 94 5 37 41 29
130 -14 152 -25 14 -61 12 -82 -4z"/>
<path d="M5647 9830 c-64 -50 -31 -160 48 -160 71 0 103 103 48 155 -33 30
-62 32 -96 5z"/>
<path d="M6635 8600 c-71 -74 -135 -83 -268 -37 -53 18 -94 30 -90 27 87 -72
160 -109 214 -110 56 0 126 52 165 123 19 35 15 34 -21 -3z"/>
<path d="M6392 7430 c-45 -55 -82 -107 -82 -115 0 -9 21 -38 46 -65 40 -43 45
-52 40 -82 -4 -18 -11 -80 -16 -138 -5 -58 -16 -168 -24 -245 -9 -77 -29 -268
-45 -425 -17 -157 -44 -409 -60 -560 -16 -151 -35 -332 -42 -403 l-13 -127
165 -161 164 -160 -160 5 c-204 7 -338 35 -468 101 -49 25 -90 45 -91 45 -1 0
1 -33 6 -72 4 -40 21 -237 38 -438 29 -347 42 -501 90 -1035 19 -211 65 -752
90 -1055 6 -69 13 -140 16 -158 5 -34 5 -34 27 -16 20 17 19 16 -2 -8 l-23
-27 11 -137 c7 -75 10 -137 9 -139 -2 -1 -87 -43 -190 -93 -196 -96 -349 -191
-392 -243 -27 -32 -35 -82 -15 -95 28 -17 89 -22 151 -14 62 9 270 72 293 89
6 4 33 16 60 26 28 10 116 51 197 91 159 79 148 68 163 169 3 22 1 126 -4 230
-6 105 -13 264 -16 355 -3 91 -8 233 -11 315 l-6 150 -31 35 -32 35 33 -29 32
-30 0 355 c0 918 67 1369 202 1369 117 0 218 -153 278 -419 77 -340 97 -740
77 -1556 -10 -432 -10 -822 0 -865 8 -32 17 -40 108 -87 288 -150 613 -257
720 -237 29 5 75 36 75 50 0 3 -6 17 -14 33 -23 43 -115 112 -241 181 l-60 32
30 -33 c21 -25 17 -22 -15 8 -40 37 -242 144 -317 167 -11 4 -23 12 -25 19 -2
7 1 248 8 537 38 1640 56 2481 52 2485 -3 3 -18 1 -34 -5 -32 -11 -441 -80
-474 -80 -25 0 -37 -16 156 206 l121 139 -10 70 c-6 44 -16 78 -28 91 -21 22
-24 46 -10 72 9 17 4 58 -39 327 -68 419 -78 480 -160 1015 -16 107 -34 217
-40 243 -15 72 -12 95 15 131 14 18 25 35 25 38 0 17 -200 238 -215 238 -5 0
-47 -45 -93 -100z m-17 -780 c10 -11 16 -20 13 -20 -3 0 -13 9 -23 20 -10 11
-16 20 -13 20 3 0 13 -9 23 -20z m155 -135 c0 -1 -10 -10 -22 -21 -14 -12 -18
-13 -10 -3 6 9 10 18 7 21 -3 2 2 5 10 5 8 0 15 -1 15 -2z m85 -105 c10 -11
16 -20 13 -20 -3 0 -13 9 -23 20 -10 11 -16 20 -13 20 3 0 13 -9 23 -20z m86
-87 c13 -16 12 -17 -3 -4 -10 7 -18 15 -18 17 0 8 8 3 21 -13z m419 -2956 c0
-2 -15 -16 -32 -33 l-33 -29 29 33 c28 30 36 37 36 29z m-1090 -92 c13 -14 21
-25 18 -25 -2 0 -15 11 -28 25 -13 14 -21 25 -18 25 2 0 15 -11 28 -25z m1010
12 c0 -2 -15 -16 -32 -33 l-33 -29 29 33 c28 30 36 37 36 29z m-930 -92 c13
-14 21 -25 18 -25 -2 0 -15 11 -28 25 -13 14 -21 25 -18 25 2 0 15 -11 28 -25z
m850 12 c0 -2 -15 -16 -32 -33 l-33 -29 29 33 c28 30 36 37 36 29z m-770 -92
c13 -14 21 -25 18 -25 -2 0 -15 11 -28 25 -13 14 -21 25 -18 25 2 0 15 -11 28
-25z m120 -558 c0 -2 -12 -14 -27 -28 l-28 -24 24 28 c23 25 31 32 31 24z
m-70 -70 c0 -2 -15 -16 -32 -33 l-33 -29 29 33 c28 30 36 37 36 29z m676 -99
l29 -33 -32 29 c-18 17 -33 31 -33 33 0 8 8 1 36 -29z m-756 19 c0 -2 -15 -16
-32 -33 l-33 -29 29 33 c28 30 36 37 36 29z m830 -92 c19 -19 32 -35 29 -35
-3 0 -20 16 -39 35 -19 19 -32 35 -29 35 3 0 20 -16 39 -35z m80 -80 c13 -14
21 -25 18 -25 -2 0 -15 11 -28 25 -13 14 -21 25 -18 25 2 0 15 -11 28 -25z
m480 -480 c13 -14 21 -25 18 -25 -2 0 -15 11 -28 25 -13 14 -21 25 -18 25 2 0
15 -11 28 -25z"/>
</g>
</svg>
