<?xml version="1.0" standalone="no"?>
<!DOCTYPE svg PUBLIC "-//W3C//DTD SVG 20010904//EN"
 "http://www.w3.org/TR/2001/REC-SVG-20010904/DTD/svg10.dtd">
<svg version="1.0" xmlns="http://www.w3.org/2000/svg"
 width="200.000000pt" height="200.000000pt" viewBox="0 0 200.000000 200.000000"
 preserveAspectRatio="xMidYMid meet">

<g transform="translate(0.000000,200.000000) scale(0.100000,-0.100000)"
fill="#000000" stroke="none">
<path d="M960 1923 c-36 -14 -72 -48 -91 -86 -29 -55 -24 -152 10 -198 l24
-32 -32 19 c-49 29 -92 79 -136 157 -33 59 -46 73 -68 75 -34 4 -48 -26 -35
-81 12 -54 36 -98 114 -207 83 -117 114 -175 121 -229 l6 -42 136 3 135 3 8
42 c9 56 38 111 116 218 84 116 124 201 120 252 -2 31 -7 39 -26 41 -31 5 -48
-12 -82 -77 -34 -67 -86 -129 -129 -154 l-31 -18 25 47 c30 56 32 113 6 169
-37 81 -121 124 -191 98z m127 -54 c36 -34 53 -72 53 -119 0 -89 -56 -150
-139 -150 -35 0 -49 6 -76 33 -101 101 -38 277 93 264 27 -3 53 -14 69 -28z"/>
<path d="M950 1681 c0 -5 13 -14 30 -21 25 -10 34 -10 56 5 32 21 26 30 -10
13 -21 -9 -32 -9 -47 0 -22 14 -29 15 -29 3z"/>
<path d="M436 1744 c-23 -22 -21 -30 24 -103 49 -82 70 -141 70 -195 l-1 -41
-13 30 c-31 72 -129 123 -207 110 -69 -12 -129 -79 -129 -145 0 -36 23 -96 48
-123 31 -34 94 -60 147 -61 l50 0 -55 -25 c-46 -22 -71 -26 -158 -28 -62 -1
-109 -6 -118 -14 -22 -18 -17 -47 13 -66 28 -19 141 -23 393 -13 86 3 111 1
138 -13 18 -10 37 -15 41 -12 5 3 37 55 71 116 l62 111 -42 35 c-32 28 -57 67
-112 181 -81 169 -117 226 -161 253 -39 23 -41 23 -61 3z m76 -54 c21 -23 59
-85 84 -138 25 -53 57 -120 70 -148 13 -28 43 -73 66 -98 l41 -47 -23 -42
c-73 -129 -75 -132 -106 -127 -30 5 -171 5 -364 0 -117 -3 -176 8 -168 32 3 9
36 13 104 14 116 1 164 16 242 75 64 49 90 99 99 192 7 80 -12 148 -67 239
-22 37 -40 72 -40 77 0 22 24 10 62 -29z m-109 -184 c57 -24 90 -69 95 -129 4
-46 1 -57 -22 -84 -48 -57 -123 -66 -194 -23 -73 45 -95 141 -45 200 42 51
102 64 166 36z"/>
<path d="M426 1375 c3 -8 -6 -26 -20 -40 -14 -14 -26 -28 -26 -30 0 -12 22 -3
40 15 20 20 28 70 10 70 -5 0 -7 -7 -4 -15z"/>
<path d="M1480 1698 c-29 -29 -66 -94 -119 -203 -61 -124 -87 -169 -120 -198
-28 -25 -41 -44 -37 -54 6 -14 114 -202 122 -212 2 -2 24 4 50 13 57 19 110
20 271 4 176 -17 283 7 283 63 0 29 -18 34 -140 40 -91 4 -123 10 -155 27
l-40 21 38 1 c77 0 146 45 178 115 23 50 23 79 0 131 -28 62 -76 87 -155 82
-71 -4 -121 -33 -158 -92 l-20 -31 5 50 c3 49 28 109 82 204 48 85 -13 113
-85 39z m80 6 c0 -3 -18 -35 -40 -72 -69 -114 -86 -214 -55 -319 11 -37 28
-62 65 -97 77 -72 124 -89 258 -94 119 -4 139 -15 71 -39 -45 -16 -126 -16
-277 -1 -107 10 -132 10 -183 -3 l-60 -16 -53 91 -54 91 43 46 c23 25 57 76
74 115 81 172 113 232 145 267 30 32 66 49 66 31z m191 -225 c35 -25 53 -70
46 -116 -12 -74 -70 -124 -149 -130 -65 -5 -112 20 -134 73 -53 126 123 255
237 173z"/>
<path d="M1560 1352 c0 -30 26 -62 51 -62 9 0 5 7 -10 19 -14 11 -23 28 -23
44 0 15 -4 27 -9 27 -5 0 -9 -13 -9 -28z"/>
<path d="M620 955 c-45 -17 -115 -18 -267 -3 -176 17 -283 -7 -283 -63 0 -30
33 -39 137 -39 83 0 106 -4 148 -24 l50 -24 -40 -1 c-113 -3 -209 -108 -190
-208 29 -157 245 -168 334 -18 10 17 11 12 8 -30 -4 -50 -21 -92 -77 -193 -23
-42 -28 -58 -20 -73 32 -59 123 24 195 177 88 186 99 205 142 245 24 22 43 42
43 45 0 16 -126 224 -135 223 -5 0 -26 -7 -45 -14z m-182 -205 c71 -43 77
-133 13 -200 -62 -66 -153 -74 -211 -20 -51 48 -52 122 -3 181 50 60 139 77
201 39z"/>
<path d="M388 693 c12 -10 26 -32 31 -48 7 -26 10 -27 16 -12 9 23 -23 71 -51
75 -17 3 -16 1 4 -15z"/>
<path d="M1313 948 c-6 -7 -36 -59 -68 -116 l-58 -103 42 -36 c34 -28 58 -67
116 -187 40 -83 87 -170 104 -193 73 -100 164 -86 106 16 -59 108 -79 158 -82
211 -4 54 -3 54 10 25 48 -103 197 -145 278 -78 60 51 74 114 40 189 -32 70
-128 123 -198 109 -18 -3 -8 5 27 22 48 24 69 28 159 30 58 2 110 8 117 14 22
18 16 47 -13 66 -28 19 -138 23 -393 13 -84 -3 -111 0 -137 13 -38 20 -38 20
-50 5z m387 -210 c112 -57 122 -190 20 -243 -58 -30 -132 -12 -184 44 -41 43
-48 123 -15 165 25 32 71 55 109 56 14 0 46 -10 70 -22z"/>
<path d="M1570 680 c-21 -21 -28 -70 -10 -70 6 0 10 11 10 25 0 14 9 30 20 37
11 7 20 16 20 20 0 14 -20 8 -40 -12z"/>
<path d="M857 693 c-4 -3 -7 -18 -7 -32 0 -40 -40 -116 -122 -232 -87 -124
-120 -195 -116 -247 2 -30 7 -38 26 -40 32 -5 49 12 83 80 34 67 83 125 128
151 l31 18 -25 -47 c-30 -56 -32 -113 -6 -169 59 -130 218 -138 282 -14 29 57
24 154 -10 200 l-24 32 32 -19 c49 -29 92 -79 136 -157 36 -64 44 -72 70 -72
28 0 30 3 33 41 4 56 -29 126 -117 249 -82 114 -111 169 -118 225 l-6 40 -132
0 c-72 0 -135 -3 -138 -7z m255 -72 c10 -32 39 -90 65 -127 121 -178 142 -212
157 -258 17 -50 15 -83 -4 -71 -6 4 -24 34 -41 67 -64 127 -186 213 -300 213
-113 -1 -231 -85 -291 -207 -15 -30 -34 -61 -43 -68 -13 -11 -15 -8 -15 21 0
47 36 118 115 229 80 111 112 169 121 215 7 38 13 39 154 43 l65 2 17 -59z
m-37 -254 c102 -102 35 -282 -98 -264 -67 9 -117 72 -117 147 0 89 56 150 139
150 35 0 49 -6 76 -33z"/>
<path d="M963 340 c-13 -5 -23 -14 -23 -19 0 -7 9 -6 26 1 20 9 30 9 46 -1 21
-13 38 -7 22 8 -16 15 -48 20 -71 11z"/>
</g>
</svg>
