<?xml version="1.0" standalone="no"?>
<!DOCTYPE svg PUBLIC "-//W3C//DTD SVG 20010904//EN"
 "http://www.w3.org/TR/2001/REC-SVG-20010904/DTD/svg10.dtd">
<svg version="1.0" xmlns="http://www.w3.org/2000/svg"
 width="512.000000pt" height="512.000000pt" viewBox="0 0 512.000000 512.000000"
 preserveAspectRatio="xMidYMid meet">

<g transform="translate(0.000000,512.000000) scale(0.100000,-0.100000)"
fill="#000000" stroke="none">
<path d="M2435 4309 c-186 -29 -364 -121 -457 -237 -48 -59 -88 -154 -105
-249 -13 -74 -14 -106 -4 -203 7 -63 20 -151 29 -195 l17 -79 44 -13 c24 -7
52 -15 62 -18 18 -6 19 1 19 97 0 120 19 221 56 295 26 53 89 117 125 126 19
5 20 2 14 -48 l-7 -54 238 79 c222 75 240 79 278 69 111 -30 220 -119 269
-219 33 -67 57 -174 57 -254 0 -56 1 -58 23 -52 12 3 39 9 60 12 35 6 38 10
52 58 37 128 49 335 25 440 -27 122 -114 206 -213 206 -11 0 -50 33 -87 73
-128 137 -304 196 -495 166z"/>
<path d="M2929 2437 c-13 -78 -25 -133 -27 -122 -2 11 -8 37 -13 59 l-10 39
-49 -6 c-52 -6 -121 -37 -157 -69 -20 -19 -23 -19 -45 -4 -30 21 -84 20 -106
-2 -18 -18 -20 -17 -57 15 -42 36 -127 66 -172 61 -24 -3 -30 -10 -40 -52 -7
-26 -14 -50 -16 -52 -2 -3 -12 53 -22 123 -10 71 -22 132 -26 137 -4 5 -34
-13 -66 -41 -49 -42 -93 -65 -273 -141 -457 -192 -525 -223 -559 -255 -57 -54
-70 -98 -97 -329 -29 -255 -76 -605 -110 -818 -13 -85 -24 -161 -24 -167 0
-10 307 -13 1501 -13 l1502 0 -7 37 c-25 148 -101 704 -126 918 -20 170 -37
273 -49 300 -35 79 -71 100 -443 255 -339 141 -348 145 -416 206 l-69 63 -24
-142z m-410 -211 c25 -30 102 -26 122 6 4 7 22 -1 47 -21 39 -32 115 -61 159
-61 12 0 23 -6 23 -12 -1 -76 -280 -1058 -301 -1058 -3 0 -9 10 -11 23 -3 12
-49 168 -102 347 -104 354 -186 654 -186 682 0 14 8 18 35 18 48 0 137 35 165
65 27 29 33 30 49 11z"/>
<path d="M2530 2025 c-10 -12 -10 -21 -2 -40 16 -35 61 -32 74 5 14 41 -44 69
-72 35z"/>
<path d="M2536 1734 c-29 -29 -12 -64 31 -64 37 0 50 51 19 72 -17 12 -33 9
-50 -8z"/>
</g>
</svg>
