<?xml version="1.0" standalone="no"?>
<!DOCTYPE svg PUBLIC "-//W3C//DTD SVG 20010904//EN"
 "http://www.w3.org/TR/2001/REC-SVG-20010904/DTD/svg10.dtd">
<svg version="1.0" xmlns="http://www.w3.org/2000/svg"
 width="512.000000pt" height="512.000000pt" viewBox="0 0 512.000000 512.000000"
 preserveAspectRatio="xMidYMid meet">

<g transform="translate(0.000000,512.000000) scale(0.100000,-0.100000)"
fill="#000000" stroke="none">
<path d="M1122 4711 c-292 -160 -468 -262 -494 -287 -208 -200 -370 -613 -433
-1109 -19 -150 -35 -388 -35 -523 0 -96 2 -105 25 -127 l24 -25 336 0 335 0 0
-975 0 -976 25 -24 24 -25 496 0 495 0 0 -215 c0 -216 0 -216 25 -240 l24 -25
671 0 671 0 22 23 c16 16 33 67 62 185 21 89 42 162 45 162 3 0 24 -73 45
-162 29 -118 46 -169 62 -185 l22 -23 671 0 671 0 24 25 25 24 0 906 0 905
-80 160 -80 160 0 245 0 246 -25 24 c-24 25 -24 25 -240 25 -118 0 -215 3
-215 8 -1 64 -24 336 -36 427 -63 495 -218 899 -421 1096 -49 48 -127 94 -509
303 l-452 246 -663 -1 -664 0 -453 -248z m1546 56 c-121 -86 -246 -122 -428
-122 -182 0 -307 36 -428 122 l-47 33 475 0 475 0 -47 -33z m-1016 -72 c91
-86 211 -151 343 -187 116 -31 374 -31 490 0 132 36 252 101 344 188 l81 76
77 -42 c43 -23 82 -46 88 -51 14 -14 -139 -159 -220 -207 -97 -57 -202 -97
-325 -123 -151 -33 -429 -33 -580 0 -126 27 -220 62 -320 121 -84 49 -240 194
-225 209 10 9 156 91 164 91 2 0 39 -34 83 -75z m-250 -257 c75 -63 142 -107
227 -149 l73 -37 -103 -55 c-57 -31 -221 -118 -364 -195 -143 -76 -261 -138
-263 -137 -2 2 -16 67 -32 146 -16 80 -45 189 -65 244 -19 55 -36 104 -38 108
-1 4 92 59 207 122 l209 114 48 -58 c26 -32 72 -78 101 -103z m2034 47 c115
-63 208 -118 206 -122 -66 -196 -85 -260 -107 -367 -14 -72 -27 -131 -28 -131
-1 -1 -119 61 -262 137 -143 77 -307 164 -364 195 l-103 55 73 37 c137 68 262
165 335 261 21 27 39 50 40 50 0 0 95 -52 210 -115z m-2703 -302 c48 -147 91
-401 117 -683 12 -138 30 -503 30 -617 l0 -83 -280 0 -280 0 0 48 c0 81 20
331 36 457 36 285 115 567 210 754 55 107 117 201 133 201 4 0 20 -35 34 -77z
m3096 21 c117 -163 215 -431 270 -734 20 -112 44 -327 55 -502 l6 -88 -281 0
-282 0 7 173 c16 392 46 697 91 922 28 134 73 285 86 285 4 0 26 -25 48 -56z
m-1769 -34 c117 -14 265 -12 390 5 l105 14 453 -241 c248 -133 458 -246 466
-252 12 -9 12 -30 1 -146 -13 -126 -35 -516 -35 -622 l0 -48 -655 0 -656 0
-24 -25 -25 -24 0 -246 0 -245 -80 -160 -80 -160 0 -610 0 -610 -440 0 -440 0
0 1088 c0 1064 -7 1385 -35 1662 -7 74 -10 138 -7 142 4 3 214 117 467 252
347 186 466 245 485 241 14 -2 63 -9 110 -15z m340 -1610 l0 -160 -80 0 -80 0
0 160 0 160 80 0 80 0 0 -160z m320 0 l0 -160 -80 0 -80 0 0 160 0 160 80 0
80 0 0 -160z m320 0 l0 -160 -80 0 -80 0 0 160 0 160 80 0 80 0 0 -160z m320
0 l0 -160 -80 0 -80 0 0 160 0 160 80 0 80 0 0 -160z m320 0 l0 -160 -80 0
-80 0 0 160 0 160 80 0 80 0 0 -160z m320 0 l0 -160 -80 0 -80 0 0 160 0 160
80 0 80 0 0 -160z m320 0 l0 -160 -80 0 -80 0 0 160 0 160 80 0 80 0 0 -160z
m320 0 l0 -160 -80 0 -80 0 0 160 0 160 80 0 80 0 0 -160z m-2310 -469 l-90
-149 0 -811 0 -811 -80 0 -80 0 0 830 0 830 65 130 65 130 105 0 104 0 -89
-149z m2048 -22 l102 -170 0 -790 0 -789 -409 0 -409 0 -73 298 c-80 321 -89
342 -149 342 -60 0 -69 -21 -149 -342 l-73 -298 -409 0 -409 0 0 789 0 790
102 170 103 171 835 0 835 0 103 -171z m357 41 l65 -130 0 -830 0 -830 -80 0
-80 0 0 811 0 811 -90 149 -89 149 104 0 105 0 65 -130z"/>
</g>
</svg>
